<svg xmlns="http://www.w3.org/2000/svg" viewBox="0 0 1021.2 917.14"><defs><style>.cls-1{fill:#999453;}.cls-2{fill:#164f4e;}</style></defs><g id="Layer_2" data-name="Layer 2"><g id="Layer_1-2" data-name="Layer 1"><path class="cls-1" d="M447.16,63.11a22.45,22.45,0,1,1-7.82,44.22,22.45,22.45,0,0,1,7.82-44.22Z"/><path class="cls-1" d="M486.82,152.24a32.78,32.78,0,0,1,26.78,38.3,33.3,33.3,0,0,1-38.5,26.84,32.78,32.78,0,0,1-26.78-38.3,33.12,33.12,0,0,1,38.5-26.84Z"/><path class="cls-1" d="M532.85,260.63a43.82,43.82,0,1,1-51,35.47,43.77,43.77,0,0,1,51-35.47Z"/><path class="cls-1" d="M536.5,392.45a54.41,54.41,0,1,1-63.26,44.06,54.1,54.1,0,0,1,63.26-44.06Z"/><path class="cls-1" d="M565.78,799.53a26.81,26.81,0,1,1-31.17,21.7,27.09,27.09,0,0,1,31.17-21.7Z"/><path class="cls-1" d="M531.24,687.72a36.19,36.19,0,1,1-42,29.25,36.09,36.09,0,0,1,42-29.25Z"/><path class="cls-1" d="M525.07,553.42c24.73,4.43,41.43,28,36.81,52.8A45.54,45.54,0,0,1,509.08,643c-24.73-4.42-41.44-28-36.81-52.8a45.4,45.4,0,0,1,52.8-36.81Z"/><path class="cls-1" d="M624.1,878.58a19.26,19.26,0,1,1-22.59,15.58,19.62,19.62,0,0,1,22.59-15.58Z"/><path class="cls-1" d="M401.84,7.53A15.8,15.8,0,1,1,383.3,20.34,15.79,15.79,0,0,1,401.84,7.53Z"/><path class="cls-2" d="M700,419.34l-2.78-42.71c-3.41-6.8-2.92-14.69-5.28-21.79-1.74-5.4-4.42-10.39-5.2-16.16a2.49,2.49,0,0,1-.18-.85c-3.51-11.16-7-22.33-11.27-33.2a18.3,18.3,0,0,1-2.63-6.54,52.3,52.3,0,0,1-6.17-12.41c-8.89-16-18.59-31.39-28.86-46.38a7,7,0,0,1-2.46-3l0-.05c-.07-.11-.17-.21-.25-.32l-1.74-2.28c-1.45-.8-1.77-2.48-2.5-3.83-9.12-10.71-18.13-21.48-27.35-32.11-5.65-6.51-11.54-12.76-17.34-19.11l0,0c-6-4.17-10.52-10.15-15.8-15.2-2.63-2.48-6.11-4-7.81-7.63a3.77,3.77,0,0,1-.76-.08c-1.18.93.29,2-.1,2.95,3.51,5.71,7,11.4,10.54,17.12,4.2,4.78,7.27,10.41,10.39,16a1.2,1.2,0,0,1,.22.72,46.29,46.29,0,0,1,6.88,11.59c.29.64.61,1.27.91,1.91,2.75,3,4.44,6.7,6.11,10.42a25.06,25.06,0,0,1,3.79,7.49,19,19,0,0,1,4.2,7.63c9.21,16.8,16.63,34.55,23.46,52.57a288.22,288.22,0,0,1,11.52,36.55c2.8,8,4.4,16.32,5.94,24.66.08.91.15,1.81.22,2.71,2.85,9.41,3.76,19.25,4.84,29,1.35,12.09,2.63,24.29,2,36.54m0,0c.8,23.55-6.21,77.64-10.54,97.09-4.49,20.2-9.87,40.16-17.29,59.38a123.66,123.66,0,0,1-6.26,17.91c-4.28,12.28-6.29,25.12-8.06,38-2,16.39-1.47,32.79.1,49.19q1.39,9.38,2.8,18.74l.29,1.09s0,.11,0,.16q1.9,7.1,3.78,14.19c.07.56.17,1.09.27,1.65q3.42,9.6,6.85,19.22,4.88,10.37,9.73,20.73c2.73,3.05,4.3,6.85,6.09,10.49,1.18,1.92,2.36,3.86,3.52,5.77a2.24,2.24,0,0,1,1.59,1.89c8.18,11,16.76,21.66,26.48,31.12l1.72.08a5.14,5.14,0,0,1-.05-.88,5.66,5.66,0,0,1-1.74-3.82,5.12,5.12,0,0,1-1.72-3.8,182.06,182.06,0,0,1-14-37c-1.89-5.87-4.15-11.64-4.5-18-.93-1.06-.83-2.39-.81-3.69-3.09-10.18-4-20.79-5-31.36-.45-5-1.43-10.08-1-15.21,0-3.8-.07-7.57-.1-11.37a170.87,170.87,0,0,1,1.06-26.58c1-11.91,2.5-23.68,5.92-35.11,0-1-.15-2.05.66-2.84a104.13,104.13,0,0,1,6.31-22.83,114.58,114.58,0,0,1,9.53-24.54,7.67,7.67,0,0,1,1.87-4.78c.22-3.24,1.94-5.82,3.39-8.53A59.71,59.71,0,0,1,678,537.64a7.29,7.29,0,0,1,1.72-4.65v0a162.35,162.35,0,0,1,6.14-19,3.73,3.73,0,0,1,.84-2.92c3-13.11,7-25.95,9-39.29S700,445.2,700,431.65c0-4.09-.32-8.21,0-12.31"/><path class="cls-2" d="M726,181.25c.22,29.9-22.33,54.14-50,54-3.07,0-6.15-.16-9.19-.24q-7.11-2.79-14.2-5.59h-.05a64.12,64.12,0,0,1-20.93-21.92c-.91-2.5-1.84-5-2.77-7.47a70.1,70.1,0,0,1-2.75-19c0-7.55,1.84-14.57,3.83-21.64l0-.05a6.35,6.35,0,0,0,1.8-3.8c5.13-9.57,12.47-16.75,20.95-22.67,10.24-4.31,20.58-7.23,31.76-5,4.45.9,8.4,3.21,12.82,4h0c3.51,2.47,7.05,4.94,10.54,7.41C719.25,150.55,725.89,164.38,726,181.25Z"/><path class="cls-2" d="M753,414.28c-2.44,52.87-24.41,98.55-56,125.18,14.52-31.06,23.45-73.09,23.5-119.38.07-77.67-24.9-143.42-59.38-165.45C716.68,269.66,756.57,336.49,753,414.28Z"/><path class="cls-2" d="M529.15,911.41C282.61,951.47,42.25,777.2,4.41,523.47c-31.54-222.07,109.2-433.32,321.52-489C127.73,168.68,49.21,414.51,129,616.69,192.31,777.33,347.68,890.39,529.15,911.41Z"/><path class="cls-2" d="M692.28,887.14c240.1-68.8,383.3-328.88,309.42-574.55C935.62,98.25,718.28-32.89,502.46,7.18,739,44.17,914.75,233.11,928.74,450,939.88,622.32,847.49,790.8,692.28,887.14Z"/></g></g></svg>